<svg xmlns="http://www.w3.org/2000/svg" width="200" height="200" viewBox="0 0 200 200" fill="none">
<g clip-path="url(#clip0_14177_2021)">
<g clip-path="url(#clip1_14177_2021)">
<mask id="mask0_14177_2021" style="mask-type:alpha" maskUnits="userSpaceOnUse" x="101" y="130" width="119" height="40">
<path d="M138.924 130.471H219.069C219.859 130.471 220.034 131.581 219.282 131.825L101.571 169.953L108.78 151.83L138.924 130.471Z" fill="black"/>
</mask>
<g mask="url(#mask0_14177_2021)">
<circle cx="138.114" cy="143.082" r="53.1357" transform="rotate(40.747 138.114 143.082)" fill="url(#paint0_linear_14177_2021)"/>
</g>
<path d="M46.5239 86.4595L55.0196 105.039C55.4386 105.955 56.3214 106.573 57.3259 106.651L95.4881 109.643C96.2944 109.706 96.9837 109.069 96.9837 108.26V77.3983L46.5239 86.4595Z" fill="#0E72ED"/>
<path d="M152.031 84.5179V103.102C152.031 104.634 150.789 105.876 149.257 105.876H98.3717C97.6056 105.876 96.9845 105.255 96.9845 104.489V77.3983L152.031 84.5179Z" fill="#4793F1"/>
<path d="M46.5239 86.4595V146.732C46.5239 147.858 47.2047 148.873 48.2469 149.299L100.26 170.6V103.288L46.5239 86.4595Z" fill="#4793F1"/>
<path d="M46.5239 86.4595V116.979C46.5239 118.095 47.193 119.103 48.2219 119.536L85.5133 135.234C86.0939 135.479 86.7613 135.302 87.1158 134.782C88.856 132.226 93.7561 124.234 95.0177 113.643C95.8738 106.457 100.26 103.288 100.26 103.288L46.5239 86.4595Z" fill="#2538BF"/>
<path d="M152.031 84.5182V146.759C152.031 147.872 151.367 148.877 150.342 149.312L100.261 170.6V103.288L152.031 84.5182Z" fill="#0E72ED"/>
<path d="M152.031 84.5182V120.238C152.031 120.549 151.831 120.82 151.532 120.903C149.516 121.468 141.768 123.621 134.993 125.294C128.497 126.898 118.871 132.476 115.719 134.369C115.118 134.729 114.356 134.591 113.965 134.01C112.442 131.745 108.843 125.603 106.814 115.585C105.377 108.49 101.572 103.288 101.572 103.288L152.031 84.5182Z" fill="#2538BF"/>
<path d="M46.5242 86.4595L100.261 103.288C100.261 103.288 94.5603 107.233 92.3967 113.643C89.5148 122.182 84.6052 126.215 83.4641 127.063C83.3107 127.177 83.1275 127.213 82.9418 127.167C80.7429 126.632 66.133 122.978 57.6647 118.497C48.4902 113.643 32.1072 109.76 32.1072 109.76C32.1072 109.76 38.0051 103.935 39.971 95.5208C41.937 89.0485 46.5242 86.4595 46.5242 86.4595Z" fill="#E7F1FD"/>
<path d="M152.031 84.5182L100.261 103.288C100.261 103.288 106.159 106.524 107.47 112.349C108.74 117.993 111.24 124.853 114.971 129.395C115.179 129.648 115.539 129.711 115.825 129.551C122.364 125.881 127.479 122.005 141.546 117.876C155.963 113.644 154.43 111.92 164.365 108.105C164.365 108.105 157.929 98.11 156.619 92.285C155.308 86.4599 152.031 84.5182 152.031 84.5182Z" fill="#A8CCF8"/>
</g>
<path d="M152.397 42.2083C143.509 74.0996 121.117 65.0888 128.94 56.5279C136.763 47.9671 151.35 62.8251 119.454 78.08" stroke="#0E72ED" stroke-width="1.41459" stroke-linecap="round" stroke-dasharray="2.63 2.63"/>
<path d="M173.034 23.0336L163.596 18C163.596 18 159.081 22.287 155.417 24.292C153.198 25.5062 148.496 26.1795 148.496 26.1795L158.429 34.3591C158.429 34.3591 164.925 33.1691 168.001 30.5839C170.714 28.304 173.034 23.0336 173.034 23.0336Z" fill="#FFBF39"/>
<path d="M0.378491 165.452C0.258402 165.468 0.186928 165.32 0.272635 165.234L7.05883 158.448L23.1016 159.731L37.5933 161.622C37.6989 161.635 37.7414 161.763 37.6608 161.833C36.4694 162.864 30.1668 168.074 24.385 168.074C19.2513 166.79 15.6084 166.497 10.9091 165.507C6.90101 164.662 1.79413 165.258 0.378491 165.452Z" fill="#2538BF"/>
<path d="M1.28345 160.694L8.34227 152.352C8.34227 152.352 17.1722 151.113 21.8182 153.635C27.2199 156.567 35.2942 158.127 35.2942 158.127C35.2942 158.127 34.0107 165.186 25.6685 168.395C20.5348 167.111 19.2514 165.828 14.1177 161.977C10.2674 159.09 1.28345 160.694 1.28345 160.694Z" fill="#FFBF39"/>
<path d="M171.27 174.495C171.129 174.385 171.153 174.168 171.313 174.088L176.769 171.36L198.997 175.226C198.997 175.226 198.73 177.013 197.547 178.125C195.326 180.213 190.782 181.024 189.333 181.507C187.929 181.25 186.433 180.058 186.433 180.058C183.534 179.642 178.569 179.171 174.353 176.675C173.287 176.044 171.878 174.969 171.27 174.495Z" fill="#2538BF"/>
<path d="M185.467 167.495L192.232 167.978L197.064 162.662C197.064 162.662 198.231 163.58 198.514 165.562C198.65 166.513 199.383 169.766 199.48 171.843C199.56 173.541 198.997 175.226 198.997 175.226L189.333 178.608L185.467 167.495Z" fill="#C28030"/>
<path d="M186.82 157.714C186.937 157.488 187.206 157.39 187.441 157.488C188.883 158.089 193.727 160.167 196.681 162.153C199.289 163.905 196.508 170.011 196.137 170.794C196.115 170.841 196.131 170.895 196.176 170.922C196.812 171.297 201.066 173.955 198.491 176.562C195.885 179.202 190.439 181.16 189.437 181.505C189.333 181.541 189.223 181.54 189.12 181.502C188.19 181.156 183.345 179.323 180.349 177.501C177.55 175.798 173.721 172.498 172.58 171.497C172.435 171.369 172.487 171.132 172.671 171.074C174.023 170.651 178.278 169.195 180.683 166.936C183.151 164.616 186.038 159.222 186.82 157.714Z" fill="#FFBF39"/>
<path d="M58.5098 71.4752C63.8003 69.9375 71.2233 66.7274 75.0022 65.1896C83.316 68.2651 83.5632 72.5385 88.9574 77.8761C90.7527 79.6526 90.8604 85.4881 90.8604 85.4881C90.8604 85.4881 87.6888 91.8313 73.0993 93.1C71.8306 87.391 72.54 83.3823 69.2933 79.7791C66.0466 76.1759 61.5329 76.8574 58.5098 71.4752Z" fill="#2538BF"/>
<path d="M58.5098 71.4753C63.8003 69.9375 71.3582 66.0931 75.1372 64.5553C83.4509 67.6309 84.1031 71.5198 89.4973 76.8574C91.2926 78.6339 94.032 82.2396 94.032 82.2396C94.032 82.2396 86.4741 88.3906 75.1372 89.9284C73.6256 86.8529 72.3376 83.5361 69.0909 79.9329C65.8442 76.3297 61.5329 76.8574 58.5098 71.4753Z" fill="#FFBF39"/>
</g>
<defs>
<linearGradient id="paint0_linear_14177_2021" x1="111.546" y1="189.575" x2="169.995" y2="97.9163" gradientUnits="userSpaceOnUse">
<stop stop-color="#2538BF"/>
<stop offset="0.927083" stop-color="#2538BF" stop-opacity="0"/>
</linearGradient>
<clipPath id="clip0_14177_2021">
<rect width="200" height="200" fill="white"/>
</clipPath>
<clipPath id="clip1_14177_2021">
<rect width="167.893" height="93.1108" fill="white" transform="translate(32.1072 77.3983)"/>
</clipPath>
</defs>
</svg>